<svg xmlns="http://www.w3.org/2000/svg" version="1.1" xmlns:xlink="http://www.w3.org/1999/xlink" width="512" height="512" x="0" y="0" viewBox="0 0 512 512" style="enable-background:new 0 0 512 512" xml:space="preserve" class=""><g transform="matrix(1.000000000000001,0,0,1.000000000000001,-2.8421709430404007e-13,64.99999999999974)"><path fill="#eceff1" d="M512 58.668v266.664c0 32.43-26.238 58.668-58.668 58.668H58.668c-5.336 0-10.453-.64-15.148-2.133C18.348 375.254 0 352.426 0 325.332V58.668C0 26.238 26.238 0 58.668 0h394.664C485.762 0 512 26.238 512 58.668zm0 0" opacity="1" data-original="#eceff1" class=""></path><path fill="#ff8807" d="M149.332 106.668c0 23.562-19.102 42.664-42.664 42.664C83.102 149.332 64 130.23 64 106.668 64 83.102 83.102 64 106.668 64c23.562 0 42.664 19.102 42.664 42.668zm0 0" opacity="1" data-original="#ffc107" class=""></path><path fill="#388e3c" d="M512 276.055v49.277c0 32.43-26.238 58.668-58.668 58.668H58.668c-5.336 0-10.453-.64-15.148-2.133l260.695-260.695c14.504-14.504 38.398-14.504 52.906 0zm0 0" opacity="1" data-original="#388e3c" class=""></path><path fill="#4caf50" d="M363.945 384H58.668c-5.336 0-10.453-.64-15.148-2.133C18.348 375.254 0 352.426 0 325.332v-6.613l122.879-122.88c14.508-14.507 38.402-14.507 52.906 0zm0 0" opacity="1" data-original="#4caf50" class=""></path></g></svg>