<?xml version="1.0" encoding="UTF-8" standalone="no"?>
<!-- Created with Inkscape (http://www.inkscape.org/) -->

<svg
   xmlns:dc="http://purl.org/dc/elements/1.1/"
   xmlns:cc="http://creativecommons.org/ns#"
   xmlns:rdf="http://www.w3.org/1999/02/22-rdf-syntax-ns#"
   xmlns:svg="http://www.w3.org/2000/svg"
   xmlns="http://www.w3.org/2000/svg"
   xmlns:sodipodi="http://sodipodi.sourceforge.net/DTD/sodipodi-0.dtd"
   xmlns:inkscape="http://www.inkscape.org/namespaces/inkscape"
   width="11in"
   height="3.7in"
   viewBox="0 0 990 333.00001"
   id="svg2"
   version="1.1"
   inkscape:version="0.91 r13725"
   sodipodi:docname="energize-logo.svg">
  <defs
     id="defs4">
    <clipPath
       id="clipPath4306"
       clipPathUnits="userSpaceOnUse">
      <path
         inkscape:connector-curvature="0"
         id="path4308"
         d="M 0,0 612,0 612,792 0,792 0,0 Z" />
    </clipPath>
  </defs>
  <sodipodi:namedview
     id="base"
     pagecolor="#ffffff"
     bordercolor="#666666"
     borderopacity="1.0"
     inkscape:pageopacity="0.0"
     inkscape:pageshadow="2"
     inkscape:zoom="1.32"
     inkscape:cx="517.13332"
     inkscape:cy="105.09036"
     inkscape:document-units="px"
     inkscape:current-layer="g4646"
     showgrid="false"
     units="in"
     height="4.5in"
     inkscape:window-width="1920"
     inkscape:window-height="1089"
     inkscape:window-x="0"
     inkscape:window-y="0"
     inkscape:window-maximized="1" />
  <metadata
     id="metadata7">
    <rdf:RDF>
      <cc:Work
         rdf:about="">
        <dc:format>image/svg+xml</dc:format>
        <dc:type
           rdf:resource="http://purl.org/dc/dcmitype/StillImage" />
        <dc:title></dc:title>
      </cc:Work>
    </rdf:RDF>
  </metadata>
  <g
     inkscape:label="Layer 1"
     inkscape:groupmode="layer"
     id="layer1"
     transform="translate(0,-719.3622)">
    <g
       transform="matrix(1.25,0,0,-1.25,1737.5001,1124.5051)"
       inkscape:label="clara_kaat_logo3_4_with_text_facebook_header_green"
       id="g4298">
      <g
         id="g4300" />
      <g
         id="g4302"
         transform="matrix(-0.0036973,-0.99999316,0.99999316,-0.0036973,-1384.866,733.17628)">
        <g
           clip-path="url(#clipPath4306)"
           id="g4304" />
      </g>
    </g>
    <g
       id="g4646"
       transform="translate(-194.62366,381.72043)">
      <path
         sodipodi:nodetypes="cccccccscccc"
         inkscape:connector-curvature="0"
         id="path4426"
         d="m 213.12531,490.29686 c -0.33811,-0.14626 -0.77171,-2.55736 -2.65811,-3.04603 -9.13913,-2.36808 -19.83695,-0.92901 -32.15446,4.32591 -4.99654,2.13206 -7.77856,3.45391 -7.61345,3.61944 0.0725,0.0725 2.10453,-0.32578 4.51572,-0.88467 7.21145,-1.6727 14.44721,-2.74586 18.49068,-2.7419 0.8873,0 2.21978,-0.216 2.9613,-0.48172 1.22238,-0.43813 1.39559,-0.44164 1.85793,-0.0377 0.28039,0.245 1.73171,0.64869 3.22505,0.89734 2.78397,0.46302 5.26952,1.20621 9.28905,2.77675 1.25771,0.49137 2.69446,1.0296 3.19281,1.19671 0.95349,0.31892 1.22684,0.86011 1.23336,2.44411"
         style="fill:#fd5a1d"
         transform="matrix(-0.00462162,1.2499914,1.2499914,0.00462162,6.4176,208.03475)" />
      <path
         inkscape:connector-curvature="0"
         id="path4479"
         d="m 285.36914,530.89857 c 7.41105,-4.36375 13.97539,-5.61004 20.05943,-11.40935 4.97302,-4.88426 6.51513,-6.78902 7.96319,-9.83442 0.68939,-1.44936 1.70633,-3.34382 2.26025,-4.20948 1.07044,-1.6735 5.36933,-10.67038 6.01557,-12.58987 0.21171,-0.6288 0.5745,-1.66399 0.80601,-2.30076 0.38002,-1.04465 1.58526,-6.24254 2.00781,-8.65909 0.0919,-0.52584 0.24842,-5.17335 0.34778,-10.32737 -0.34702,-16.56381 -0.18367,-34.74795 -0.17713,-45.07977 l 0.0715,-33.30613 32.65346,-0.36581 0.0241,-29.8679 c 0.0132,-16.42735 -0.0211,-30.38239 -0.0764,-31.01116 l 1e-5,-5e-5 c -0.71786,-8.17201 -2.58299,-14.90639 -6.10818,-22.05466 -1.91864,-3.89031 -3.92933,-7.03692 -14.12728,-22.10409 l -44.7552,-67.02419 -0.48241,-24.94824 9.79104,-0.48955 0,-13.14736 -27.72431,-0.28582 -0.28582,-23.43703 -45.44497,0 -0.52915,23.25888 -26.62348,0.46399 0,13.14736 8.87007,0.79446 -0.29557,23.53024 c -7.72791,12.38207 -17.69762,23.96946 -25.86467,34.41058 -7.59366,9.72267 -26.45298,33.89942 -33.88908,43.44421 -5.37054,6.89357 -7.65016,10.30828 -9.82651,14.71956 -2.58505,5.23987 -3.96822,9.40777 -5.35911,16.14872 -0.45617,2.21126 -0.50933,5.21849 -0.59233,33.51205 l -0.0909,31.08268 33.46444,0.27935 0.71466,60.17062 13.71924,0 0.46517,-60.06544 56.3922,0.0642 0.4493,21.28302 14.14797,-0.1529 0.46747,-21.19701 56.38993,0.0669 0.52065,34.08372 c 0.72474,47.4444 0.12467,45.48955 -0.61325,50.35488 -1.37021,9.03522 -2.19199,11.98217 -4.90017,17.57781 -3.69586,7.63567 -8.00682,13.28445 -13.56497,17.77414 -1.6487,1.33215 -18.43152,11.68176 -19.75303,12.35733"
         style="fill:#fd5a1d"
         transform="matrix(-0.00462162,1.2499914,1.2499914,0.00462162,6.4176,208.03475)"
         sodipodi:nodetypes="cccccccccccscccccccccccccccccsccsccccccccccscccc" />
      <path
         sodipodi:nodetypes="cscccccccscsccccccc"
         inkscape:connector-curvature="0"
         d="m 215.61989,500.30926 c 0.15168,-0.15168 35.22748,-0.19473 47.16424,-0.23732 l 20.56647,-0.0734 0,-7.85981 0,-7.85981 -33.9408,-0.0726 -33.94081,-0.0726 m 0.065,-0.11528 0.0612,16.34783 41.60315,30.35419 c 0.1,0.0729 -0.28939,0.30253 -0.64309,0.39731 -0.35361,0.0948 -9.74487,0.1741 -20.86925,0.17624 l -20.22617,0.004 0.0761,7.78853 0.0761,7.78852 33.86936,0 33.86936,0 0.0764,-7.42737 0.0764,-7.42738"
         style="fill:#3f8b31;fill-opacity:1"
         id="path4411"
         transform="matrix(-0.00462162,1.2499914,1.2499914,0.00462162,6.4176,208.03475)" />
      <path
         inkscape:connector-curvature="0"
         id="path4389"
         d="m 283.91975,733.08196 c -1.79859,-13.1316 -9.85103,-23.75913 -21.42609,-28.27773 -4.54319,-1.77328 -6.24033,-2.0885 -12.01249,-2.22948 -7.17139,-0.17491 -10.45399,0.52226 -16.47913,3.49985 -3.10673,1.53569 -5.36567,3.2076 -8.25988,6.11424 -5.79672,5.82199 -9.04732,12.55011 -10.43958,21.60703 -1.17985,7.67527 0.26861,17.20105 3.74772,24.64609 2.13437,4.56746 5.25604,9.11687 6.04747,8.81322 0.68425,-0.2617 10.9497,-8.85528 10.9497,-9.16542 0,-0.16318 -0.65612,-1.19434 -1.45835,-2.29126 -5.18389,-7.08998 -6.84237,-15.96735 -4.2897,-22.96174 1.505,-4.12395 3.89009,-7.15097 7.5545,-9.5889 4.15734,-2.76567 9.18262,-3.93862 14.23809,-3.32403 5.19582,0.63175 8.59795,2.29205 12.26113,5.98356 4.19177,4.22453 5.90722,8.7855 5.63819,14.99066 -0.14355,3.31135 -1.05844,6.81991 -2.58299,9.90428 l -0.63554,1.28621 -8.71745,0.1429 -8.71744,0.14291 0,7.28799 0,7.28798 12.94417,0.0744 12.94417,0.0744 0.7182,-0.77479 c 1.17402,-1.26641 4.56864,-8.53768 5.78372,-12.38807 2.42899,-7.69666 3.10844,-14.16246 2.19165,-20.85526 z"
         style="fill:#3f8b31;fill-opacity:1"
         transform="matrix(-0.00462162,1.2499914,1.2499914,0.00462162,6.4176,208.03475)" />
      <path
         inkscape:connector-curvature="0"
         id="path4387"
         d="m 283.27872,415.45087 c -0.28288,-0.1606 -41.00195,-0.35449 -56.02168,-0.26674 l -11.79145,0.0689 0.0729,26.65246 0.0729,26.65246 6.43089,0 6.43089,0 0.14291,-18.00651 0.14291,-18.00652 6.85962,0 6.85961,0 0.14291,16.14864 0.14291,16.14865 6.57381,0 6.57381,0 0.14291,-16.14865 0.14291,-16.14864 6.71656,-0.0769 c 6.06147,-0.0694 6.75144,-0.0292 7.07398,0.4119 0.27709,0.37894 0.35739,4.55004 0.35739,18.56013 l 0,18.0713 2.07229,0.0949 c 1.13972,0.0522 4.0979,0.0515 6.57381,-0.003 l 4.50163,-0.0965 0,-26.96776 c 0,-14.83226 -0.0965,-27.02257 -0.21437,-27.08949 z"
         style="fill:#3f8b31;fill-opacity:1"
         transform="matrix(-0.00462162,1.2499914,1.2499914,0.00462162,6.4176,208.03475)" />
      <path
         inkscape:connector-curvature="0"
         id="path4385"
         d="m 249.48227,564.16388 -34.01372,0 0,26.58103 0,26.58102 6.57381,0 6.57381,0 0,-17.80645 c 0,-13.46836 0.0836,-17.88994 0.34298,-18.1494 0.39375,-0.39383 12.69517,-0.49449 13.30241,-0.10886 0.27431,0.1742 0.3718,3.88792 0.42873,16.35868 l 0.0739,16.13327 6.57381,0 6.57381,0 0.0739,-16.13327 c 0.0571,-12.47084 0.15442,-16.18444 0.42873,-16.35868 0.19518,-0.12394 3.20755,-0.22735 6.69389,-0.22975 5.38562,-0.004 6.40657,0.0632 6.78817,0.44477 0.39889,0.39894 0.44931,2.49163 0.44931,18.72644 l 0,18.27722 6.50233,-0.0768 6.50234,-0.0768 0.0729,-27.08117 0.0729,-27.08118 -34.01372,0 z"
         style="fill:#3f8b31;fill-opacity:1"
         transform="matrix(-0.00462162,1.2499914,1.2499914,0.00462162,6.4176,208.03475)" />
      <path
         inkscape:connector-curvature="0"
         id="path4383"
         d="m 249.48085,633.04587 -34.01229,0 0,16.94214 c 0,9.97469 0.12213,17.93825 0.29698,19.36417 0.93154,7.59607 4.0742,14.09831 8.48922,17.56355 2.24413,1.7614 4.34396,2.83219 7.37018,3.75804 2.38235,0.72906 2.92048,0.78473 7.56647,0.78222 4.26377,-0.003 5.33918,-0.0955 7.28834,-0.63132 5.83236,-1.6038 10.60106,-5.05533 13.37753,-9.68378 0.49286,-0.8221 1.03854,-1.54836 1.21278,-1.61568 0.17398,-0.0668 5.06531,2.90664 10.86958,6.60766 5.80426,3.70101 10.78009,6.7906 11.05732,6.86584 0.47538,0.12879 0.49973,-0.40746 0.42873,-9.39098 l -0.0754,-9.5276 -8.44968,-4.44074 c -4.64732,-2.44253 -8.92618,-4.72666 -9.50853,-5.07672 l -1.05878,-0.63645 0.0766,-6.93792 0.0765,-6.93792 9.50341,-0.0753 9.50342,-0.0753 0,-8.42775 0,-8.42775 -34.01228,0 z"
         style="fill:#3f8b31;fill-opacity:1"
         transform="matrix(-0.00462162,1.2499914,1.2499914,0.00462162,6.4176,208.03475)" />
      <path
         inkscape:connector-curvature="0"
         id="path4381"
         d="m 250.47823,667.28149 c -0.54911,2.32927 -1.32665,3.8214 -2.71435,5.20899 -4.43759,4.43757 -13.46028,3.9402 -16.80853,-0.92585 -1.97626,-2.87179 -2.33913,-5.09652 -2.33913,-14.33085 0,-4.78209 0.0959,-6.73437 0.34298,-6.98148 0.25414,-0.25414 3.02441,-0.34298 10.6948,-0.34298 5.69348,0 10.55523,0.0781 10.8039,0.1735 0.39682,0.15225 0.4517,1.10563 0.44793,7.78852 -0.003,5.71428 -0.10988,8.0632 -0.42736,9.41039 z"
         style="fill:#ffffff;fill-opacity:1"
         transform="matrix(-0.00462162,1.2499914,1.2499914,0.00462162,6.4176,208.03475)" />
      <path
         inkscape:connector-curvature="0"
         id="path4379"
         d="m 283.30686,782.72314 c -0.10715,-0.10712 -15.41459,-0.19478 -34.01654,-0.19478 l -33.82172,0 0,8.57569 0,8.5757 33.9408,-0.0726 33.94081,-0.0726 0.0757,-8.30832 c 0.0416,-4.56984 -0.012,-8.39591 -0.11909,-8.50307 z"
         style="fill:#3f8b31;fill-opacity:1"
         transform="matrix(-0.00462162,1.2499914,1.2499914,0.00462162,6.4176,208.03475)" />
      <path
         inkscape:connector-curvature="0"
         id="path4377"
         d="m 278.07722,812.53917 -5.41594,0 -3.37288,2.82348 c -5.01191,4.19522 -7.94103,6.6623 -24.47021,20.61378 -8.28806,6.99574 -15.25973,12.76047 -15.49265,12.81131 -0.37042,0.0808 -0.42358,-2.07187 -0.42358,-17.18545 0,-14.31975 -0.0674,-17.33379 -0.3934,-17.60441 -0.27503,-0.22825 -2.27431,-0.30328 -6.64526,-0.24935 l -6.25185,0.0771 -0.0728,29.08192 -0.0728,29.08192 5.50333,-0.0146 5.50334,-0.0146 8.14579,-6.86981 c 8.66494,-7.30778 17.12429,-14.42248 27.9631,-23.51725 3.66835,-3.07771 6.85067,-5.59627 7.07185,-5.59627 0.3407,0 0.4133,2.78467 0.47572,18.22083 l 0.0736,18.22083 6.64525,0.0767 6.64526,0.0767 0,-30.01609 0,-30.01609 -5.41595,0 z"
         style="fill:#3f8b31;fill-opacity:1"
         transform="matrix(-0.00462162,1.2499914,1.2499914,0.00462162,6.4176,208.03475)" />
      <path
         inkscape:connector-curvature="0"
         id="path4375"
         d="m 249.48236,885.70841 -34.01373,0 0,26.58102 0,26.58111 6.57381,0 6.57381,0 0,-17.82872 c 0,-14.78188 0.0672,-17.88415 0.39306,-18.15501 0.27554,-0.22873 2.34873,-0.30326 6.93106,-0.24932 l 6.53794,0.0769 0.14881,16.29144 c 0.0818,8.96069 0.17832,16.32629 0.21437,16.36826 0.036,0.0422 2.99148,0.0422 6.56788,0 l 6.50233,-0.0768 0.14291,-16.29144 0.14291,-16.29144 6.85961,0 6.85962,0 0.0736,18.2659 c 0.0526,13.06483 0.16559,18.37677 0.39683,18.65476 0.25853,0.3115 1.58663,0.37399 6.64313,0.31253 l 6.31997,-0.0768 0.0729,-27.08085 0.0729,-27.08118 -34.01373,0 z"
         style="fill:#3f8b31;fill-opacity:1"
         transform="matrix(-0.00462162,1.2499914,1.2499914,0.00462162,6.4176,208.03475)" />
      <path
         inkscape:connector-curvature="0"
         id="path4373"
         d="m 211.7432,795.67614 c -0.14778,0 -7.05492,2.77437 -15.34922,6.16492 -8.29431,3.39056 -15.46638,6.24017 -15.93802,6.33125 -2.30243,0.44739 1.06599,-1.40817 13.85623,-7.63171 7.54883,-3.6733 13.72513,-6.76922 13.72513,-6.87852 0,-0.33666 -4.97398,-1.13256 -8.95255,-1.43273 -9.50747,-0.71672 -17.00122,1.32027 -21.50892,5.84575 -2.96713,2.97951 -4.16454,5.82596 -4.5742,10.87409 l -0.19508,2.40451 1.2512,0.33692 c 4.71228,1.26879 8.24855,1.75428 13.82933,1.89843 5.0506,0.13059 6.04202,0.0789 8.51258,-0.44359 9.74024,-2.05999 14.56074,-7.03929 15.46082,-15.96917 0.086,-0.85299 0.0353,-1.50084 -0.11743,-1.50084 z"
         style="fill:#fd5a1d"
         transform="matrix(-0.00462162,1.2499914,1.2499914,0.00462162,6.4176,208.03475)" />
      <path
         inkscape:connector-curvature="0"
         id="path4371"
         d="m 203.18979,505.52315 c -0.61222,-3.36046 -3.19247,-9.78239 -3.70056,-9.20977 -0.12438,0.14019 -2.70852,4.88505 -5.74277,10.54429 -6.01067,11.211 -6.21978,11.57563 -6.63764,11.57563 -0.50075,0 2.8e-4,-1.29175 4.65244,-11.99586 2.5065,-5.76735 4.55756,-10.63712 4.55756,-10.82102 0,-0.45668 -0.1543,-0.4367 -3.00451,0.38931 -5.95158,1.72498 -9.68743,4.48352 -11.61409,8.57602 -2.17176,4.6134 -1.75881,9.60482 1.32974,16.06667 1.72931,3.61785 1.46933,3.46658 4.7674,2.78071 9.76353,-2.0299 15.07264,-7.01474 15.51793,-14.57074 0.0648,-1.10009 0.008,-2.60093 -0.12524,-3.33511 z"
         style="fill:#fd5a1d"
         transform="matrix(-0.00462162,1.2499914,1.2499914,0.00462162,6.4176,208.03475)" />
      <path
         inkscape:connector-curvature="0"
         id="path4369"
         d="m 203.13892,704.10047 c -0.71752,-5.59231 -2.63204,-10.81816 -5.74284,-15.67732 -1.07113,-1.67271 -1.5688,-2.20968 -2.03354,-2.19384 -0.72197,0.0249 -8.53209,4.00752 -8.67004,4.42094 -0.0516,0.15495 0.48223,1.05178 1.18672,1.99267 4.71554,6.30116 7.08344,16.47186 4.7237,20.29001 -0.98298,1.59034 -2.82445,2.32769 -4.61158,1.84616 -2.26231,-0.60916 -3.4662,-2.92724 -5.8384,-11.2411 -1.351,-4.73457 -2.17415,-6.73913 -3.7317,-9.08812 -1.53175,-2.31026 -2.85874,-3.5141 -4.95456,-4.49777 -1.45253,-0.68131 -1.89566,-0.74344 -5.30067,-0.74344 -3.59087,0 -3.78075,0.0308 -5.65565,0.91872 -6.20607,2.93991 -9.50699,10.37156 -8.97499,20.20709 0.19113,3.5339 0.70929,6.33758 1.79997,9.74223 0.89895,2.80685 2.91019,6.99732 3.4592,7.20799 0.37934,0.14551 8.84215,-3.81268 9.12284,-4.26729 0.0711,-0.11507 -0.43901,-1.40263 -1.13355,-2.8615 -2.70234,-5.67468 -4.07523,-11.74021 -3.37047,-14.88968 0.4325,-1.93327 1.15207,-2.90584 2.47152,-3.34144 1.8154,-0.59914 3.54899,0.2105 4.82334,2.25244 0.76485,1.22602 1.75743,3.99089 3.19315,8.89622 3.06419,10.46787 7.16254,14.56995 14.55748,14.56995 7.92207,0 13.11943,-5.36659 14.57981,-15.05544 0.46166,-3.06188 0.48978,-5.45372 0.10026,-8.4889 z"
         style="fill:#3f8b31;fill-opacity:1"
         transform="matrix(-0.00462162,1.2499914,1.2499914,0.00462162,6.4176,208.03475)" />
      <path
         inkscape:connector-curvature="0"
         id="path4367"
         d="m 203.28557,752.80356 c -0.81252,-6.39857 -2.91705,-12.39322 -5.95994,-16.97755 -1.7077,-2.57241 -1.34072,-2.56766 -6.31864,-0.0848 -2.42316,1.20859 -4.40593,2.32373 -4.40593,2.47896 0,0.15465 0.50384,0.94723 1.11983,1.76062 3.799,5.01969 6.47277,13.32215 5.74003,17.82427 -0.81938,5.03475 -5.13494,6.34392 -7.97715,2.42035 -0.85643,-1.18245 -1.67444,-3.45391 -3.59883,-9.99393 -2.19783,-7.46935 -4.53294,-10.92627 -8.62145,-12.76387 -2.43379,-1.09375 -6.62663,-1.27195 -9.24186,-0.39236 -4.88638,1.6434 -8.08172,5.44104 -9.75993,11.60082 -0.51653,1.89604 -0.62114,3.06979 -0.63383,7.12879 -0.0161,5.13691 0.22049,6.93633 1.44704,11.00397 0.82761,2.74428 2.58539,6.68765 3.40134,7.63092 l 0.54362,0.62822 4.41681,-2.13919 c 2.42933,-1.17691 4.47504,-2.1978 4.54618,-2.26829 0.0711,-0.0711 -0.45411,-1.38442 -1.16682,-2.91931 -2.60735,-5.61053 -3.91338,-10.80035 -3.53346,-14.0382 0.20455,-1.74319 0.50281,-2.42827 1.54204,-3.54262 0.59301,-0.63597 0.98195,-0.7858 2.03731,-0.78494 3.08271,0.003 4.33342,1.94594 6.89628,10.71711 1.81986,6.22749 3.63052,9.81612 6.10427,12.09637 4.87973,4.49777 13.33232,4.1279 18.17476,-0.79517 3.14377,-3.19651 5.07005,-8.47614 5.27018,-14.44529 0.058,-1.72893 0.0483,-3.59409 -0.0216,-4.14453 z"
         style="fill:#3f8b31;fill-opacity:1"
         transform="matrix(-0.00462162,1.2499914,1.2499914,0.00462162,6.4176,208.03475)" />
      <path
         inkscape:connector-curvature="0"
         id="path4365"
         d="m 202.53547,566.86799 c -0.1965,-0.075 -11.16118,-0.10309 -24.36594,-0.0625 l -24.00867,0.0738 -0.0766,6.60607 c -0.0588,5.0696 0.008,6.67181 0.28581,6.8904 0.19935,0.15632 6.53609,3.08801 14.08167,6.515 7.54558,3.42698 13.90132,6.39777 14.12388,6.60052 0.54843,0.50096 0.98642,0.27942 -14.83841,7.50104 l -13.57632,6.19581 -0.0766,6.78348 -0.0766,6.78348 24.44888,0 24.44887,0 -0.0778,-5.35946 -0.0778,-5.35947 -15.27949,-0.074 c -9.3109,-0.0451 -15.38701,-0.18152 -15.55476,-0.34927 -0.17652,-0.17652 0.38345,-0.57789 1.56022,-1.1183 1.85415,-0.85219 16.11557,-7.09949 21.1282,-9.25626 1.49334,-0.6425 2.87967,-1.29175 3.08031,-1.44303 0.27192,-0.20472 0.3447,-1.26244 0.28582,-4.14532 l -0.0793,-3.87051 -7.71707,-3.38897 c -4.24439,-1.86436 -9.96788,-4.37025 -12.71886,-5.57013 -5.57883,-2.43223 -5.9299,-2.62707 -5.37259,-2.9803 0.20393,-0.12935 7.21971,-0.23719 15.59057,-0.23959 l 15.21978,-0.004 0,-5.2969 c 0,-3.97426 -0.0892,-5.33095 -0.35739,-5.43312 z"
         style="fill:#3f8b31;fill-opacity:1"
         transform="matrix(-0.00462162,1.2499914,1.2499914,0.00462162,6.4176,208.03475)" />
      <path
         inkscape:connector-curvature="0"
         id="path4363"
         d="m 202.63892,628.18717 c -0.13959,0 -3.25866,1.29729 -6.93106,2.88209 -3.6725,1.58479 -10.34286,4.46371 -14.82305,6.39698 -4.48019,1.93327 -10.46092,4.51598 -13.29051,5.74042 -2.82959,1.22364 -7.00967,3.02306 -9.28905,3.9988 l -4.14435,1.77329 -0.0772,6.23383 c -0.0443,3.58222 0.0361,6.34709 0.18901,6.49995 0.24056,0.24054 9.17639,4.08038 21.75319,9.34758 2.59362,1.08662 5.80924,2.43777 7.14542,3.00326 1.33625,0.56558 3.77992,1.5943 5.43052,2.28571 1.65042,0.69134 5.44482,2.29205 8.4316,3.55688 2.98668,1.26482 5.527,2.30076 5.64489,2.30076 0.11789,0 0.21436,-2.89635 0.21436,-6.43817 0,-5.87585 -0.0438,-6.4548 -0.50007,-6.61479 -3.34886,-1.16978 -8.00805,-3.12127 -8.28871,-3.47212 -0.27116,-0.33864 -0.35636,-2.9304 -0.35293,-10.75243 0.002,-5.66835 0.10712,-10.46811 0.2327,-10.66595 0.12558,-0.19781 1.69913,-0.94168 3.4969,-1.6529 1.79756,-0.71146 3.75087,-1.50163 4.34035,-1.75586 l 1.07182,-0.46234 0,-6.10157 c 0,-3.36442 -0.11386,-6.10157 -0.25382,-6.10157 z"
         style="fill:#3f8b31;fill-opacity:1"
         transform="matrix(-0.00462162,1.2499914,1.2499914,0.00462162,6.4176,208.03475)" />
      <path
         inkscape:connector-curvature="0"
         id="path4361"
         d="m 184.08376,661.91362 c -0.28417,0 -1.85964,-0.52459 -3.50125,-1.16583 -1.64151,-0.64114 -4.33508,-1.69013 -5.98567,-2.33085 -6.7594,-2.6239 -7.57597,-2.98505 -7.653,-3.38501 -0.0583,-0.30259 2.24686,-1.34165 8.36417,-3.77071 4.64454,-1.84457 8.63537,-3.35333 8.86853,-3.35333 0.36321,0 0.42392,1.00425 0.42392,7.00286 0,6.5641 -0.0324,7.00287 -0.51653,7.00287 z"
         style="fill:#ffffff"
         transform="matrix(-0.00462162,1.2499914,1.2499914,0.00462162,6.4176,208.03475)" />
      <path
         inkscape:connector-curvature="0"
         id="path4359"
         d="m 174.70584,519.43364 c -0.42461,-2.04257 -2.42934,-6.58944 -3.45529,-7.83842 l -0.56935,-0.69273 -0.62148,2.04573 c -0.34174,1.12543 -1.46145,5.10207 -2.48799,8.83856 -2.14912,7.82021 -3.5231,12.08054 -3.89636,12.08054 -0.42667,0 0.16504,-3.11177 4.25834,-22.39792 0.16709,-0.78722 0.14744,-0.80467 -0.51172,-0.4622 -1.58286,0.82368 -4.26645,2.92486 -5.60459,4.38927 -5.52219,6.04217 -5.7584,13.92843 -0.65886,22.00271 0.65955,1.04465 1.36849,1.89921 1.57497,1.89921 0.2066,0 1.19185,-0.46042 2.18959,-1.02326 5.88805,-3.32165 9.01189,-7.48994 9.94202,-13.26766 0.37728,-2.34353 0.35567,-3.09672 -0.15922,-5.57331 z"
         style="fill:#fd5a1d"
         transform="matrix(-0.00462162,1.2499914,1.2499914,0.00462162,6.4176,208.03475)" />
      <path
         inkscape:connector-curvature="0"
         id="path4357"
         d="m 169.20391,480.70539 c -0.72403,-2.78071 -1.97523,-5.03712 -3.98191,-7.18027 -3.17085,-3.38659 -7.42841,-5.11394 -13.54634,-5.49727 -1.55747,-0.0976 -2.28596,-0.0334 -2.49621,0.22003 -0.16333,0.19681 -0.38037,1.6331 -0.48257,3.19255 -0.60399,9.2249 3.65226,15.91936 11.81531,18.58404 2.59534,0.84744 7.45905,1.30046 7.07271,0.65944 -0.13363,-0.22183 -3.27306,-4.11286 -6.97637,-8.64619 -7.20578,-8.82122 -7.69374,-9.47501 -7.33145,-9.82349 0.24736,-0.23794 4.87897,4.46292 11.81648,11.99278 2.28116,2.47579 4.25924,4.50173 4.39592,4.50173 0.44347,0 0.22837,-6.0295 -0.28551,-8.00285 z"
         style="fill:#fd5a1d"
         transform="matrix(-0.00462162,1.2499914,1.2499914,0.00462162,6.4176,208.03475)" />
      <path
         inkscape:connector-curvature="0"
         id="path4330"
         d="m 167.17003,498.99766 c -0.15477,0 -2.05205,0.63504 -4.21582,1.41135 -4.5458,1.63073 -13.02137,4.6031 -18.79689,6.59261 -2.20091,0.75815 -7.34552,2.55736 -11.43269,3.9988 -11.72103,4.13266 -18.08915,6.29007 -18.56624,6.29007 -0.84716,0 -0.42873,-0.48463 1.05981,-1.21968 1.41308,-0.69891 6.97898,-3.09751 15.07676,-6.49757 1.96528,-0.82526 4.98752,-2.11306 6.71669,-2.8615 1.72931,-0.74858 7.13116,-3.05474 12.00434,-5.12424 12.8744,-5.46796 13.02799,-5.5337 14.43171,-6.19898 l 1.28412,-0.60848 -2.83131,-1.32343 c -3.77773,-1.76537 -8.89638,-3.44995 -12.82128,-4.21978 -3.71428,-0.7286 -10.52625,-0.86882 -13.63946,-0.28132 -12.28317,2.31897 -21.26992,9.14047 -27.85941,21.14672 -1.84867,3.36679 -2.29111,4.38134 -4.20186,9.59801 l -0.83001,2.2667 0.7717,0.61393 c 1.16271,0.92744 9.31982,4.59756 12.39979,5.57885 5.20371,1.65845 7.94618,2.0893 13.43354,2.11147 5.52696,0.022 7.86372,-0.33926 12.29013,-1.9008 8.95431,-3.15849 15.72482,-9.02515 21.03461,-18.22613 1.47722,-2.55975 3.50074,-6.71696 3.72604,-7.65468 0.10262,-0.42722 0.42564,-1.25374 0.71752,-1.83744 0.59507,-1.188 0.66538,-1.65449 0.24967,-1.65449 z"
         style="fill:#fd5a1d"
         transform="matrix(-0.00462162,1.2499914,1.2499914,0.00462162,6.4176,208.03475)" />
    </g>
  </g>
</svg>
